<?xml version="1.0" encoding="utf-8"?>
<!-- Generator: Adobe Illustrator 22.0.2, SVG Export Plug-In . SVG Version: 6.00 Build 0)  -->
<svg version="1.1" id="Layer_1" xmlns="http://www.w3.org/2000/svg" xmlns:xlink="http://www.w3.org/1999/xlink" x="0px" y="0px"
	 viewBox="0 0 22 18" style="enable-background:new 0 0 22 18;" xml:space="preserve">
<style type="text/css">
	.st0{fill:#FDFAF5;}
	.st1{fill:#FDFAF5;stroke:#FDFAF5;stroke-width:1.5;stroke-linejoin:bevel;}
	.st2{fill:#7B8DA3;}
</style>
<title>Certified Voicewill</title>
<g id="Record_copy">
	<path class="st0" d="M18,2v12H2V2H18 M18,0H2C0.9,0,0,0.9,0,2v12c0,1.1,0.9,2,2,2h16c1.1,0,2-0.9,2-2V2C20,0.9,19.1,0,18,0z"/>
	<path class="st0" d="M13.5,7c0.6,0,1,0.4,1,1s-0.4,1-1,1c-0.6,0-1-0.4-1-1S12.9,7,13.5,7 M13.5,5.5C12.1,5.5,11,6.6,11,8
		s1.1,2.5,2.5,2.5S16,9.4,16,8S14.9,5.5,13.5,5.5z"/>
	<path class="st0" d="M6.5,7c0.6,0,1,0.4,1,1s-0.4,1-1,1s-1-0.4-1-1S5.9,7,6.5,7 M6.5,5.5C5.1,5.5,4,6.6,4,8s1.1,2.5,2.5,2.5
		S9,9.4,9,8S7.9,5.5,6.5,5.5z"/>
	<line class="st1" x1="6.5" y1="9.8" x2="13.5" y2="9.8"/>
</g>
<g id="Certification_copy_3">
	<circle class="st2" cx="15.8" cy="11.8" r="3.5"/>
	<path class="st0" d="M17.1,17.5c-0.3,0-0.5-0.1-0.8-0.1c-0.2-0.1-0.4-0.1-0.5-0.1c-0.2,0-0.4,0-0.5,0.1c-0.3,0.1-0.5,0.1-0.8,0.1
		c-0.1,0-0.3,0-0.4-0.1c-0.4-0.2-0.8-0.5-1-0.8c-0.1-0.2-0.2-0.3-0.4-0.4c-0.2-0.1-0.3-0.2-0.5-0.2c-0.4-0.1-0.8-0.4-1.1-0.7
		c-0.2-0.4-0.3-0.8-0.3-1.3c0-0.2,0-0.4-0.1-0.6c-0.1-0.2-0.2-0.3-0.3-0.5c-0.3-0.3-0.4-0.8-0.4-1.2c0-0.4,0.2-0.9,0.4-1.2
		c0.1-0.2,0.2-0.3,0.3-0.5c0-0.2,0.1-0.4,0.1-0.6c0-0.4,0.1-0.9,0.3-1.2c0.3-0.3,0.6-0.6,1.1-0.7c0.2-0.1,0.3-0.1,0.5-0.2
		C12.8,7.2,12.9,7,13,6.9c0.2-0.4,0.6-0.7,1-0.8C14.1,6,14.3,6,14.4,6c0.3,0,0.5,0.1,0.8,0.1c0.2,0.1,0.4,0.1,0.5,0.1
		c0.2,0,0.4,0,0.5-0.1C16.6,6.1,16.8,6,17.1,6c0.1,0,0.3,0,0.4,0.1c0.4,0.2,0.8,0.4,1,0.8c0.1,0.2,0.2,0.3,0.4,0.4
		c0.1,0.1,0.3,0.2,0.5,0.2c0.4,0.1,0.8,0.4,1,0.7c0.2,0.4,0.3,0.8,0.3,1.2c0,0.2,0,0.4,0.1,0.6c0.1,0.2,0.2,0.3,0.3,0.5
		c0.3,0.3,0.4,0.8,0.5,1.2c0,0.4-0.2,0.9-0.5,1.2c-0.1,0.2-0.2,0.3-0.3,0.5c0,0.2-0.1,0.4-0.1,0.6c0,0.4-0.1,0.9-0.3,1.2
		c-0.3,0.3-0.6,0.6-1,0.7c-0.2,0.1-0.3,0.1-0.5,0.2c-0.1,0.1-0.3,0.3-0.4,0.4c-0.2,0.4-0.6,0.7-1,0.8C17.4,17.5,17.2,17.5,17.1,17.5
		z M15.8,8.8c-1.7,0-3,1.3-3,3s1.3,3,3,3s3-1.3,3-3S17.4,8.8,15.8,8.8z"/>
	<path class="st2" d="M17.1,6.5c0.1,0,0.2,0,0.3,0c0.5,0.2,0.8,0.8,1.2,1.2S19.7,8,20,8.5s0.1,1.1,0.3,1.7s0.7,1,0.7,1.6
		s-0.5,1-0.7,1.5s0,1.2-0.3,1.7s-1,0.5-1.4,0.8s-0.7,1-1.2,1.2c-0.1,0-0.2,0-0.3,0c-0.4,0-0.9-0.3-1.4-0.3s-0.9,0.3-1.4,0.3
		c-0.1,0-0.2,0-0.3,0c-0.5-0.2-0.8-0.8-1.2-1.2s-1.1-0.4-1.4-0.8s-0.1-1.1-0.3-1.7s-0.7-1-0.7-1.5s0.5-1,0.7-1.6s0-1.2,0.3-1.7
		s1-0.5,1.4-0.8s0.7-1,1.2-1.2c0.1,0,0.2,0,0.3,0c0.4,0,0.9,0.3,1.4,0.3S16.7,6.5,17.1,6.5 M15.8,15.3c1.9,0,3.5-1.6,3.5-3.5
		s-1.6-3.5-3.5-3.5s-3.5,1.6-3.5,3.5S13.8,15.3,15.8,15.3 M17.1,5.5c-0.3,0-0.6,0.1-0.9,0.2c-0.1,0-0.3,0.1-0.4,0.1
		c-0.1,0-0.3,0-0.4-0.1c-0.3-0.1-0.6-0.2-0.9-0.2c-0.2,0-0.4,0-0.6,0.1c-0.5,0.2-0.9,0.6-1.2,1c-0.1,0.1-0.2,0.2-0.3,0.3
		C12.2,7,12.1,7,12,7.1c-0.5,0.2-1,0.5-1.3,0.9c-0.3,0.4-0.4,1-0.4,1.5c0,0.2,0,0.3,0,0.5c-0.1,0.1-0.1,0.3-0.2,0.4
		c-0.3,0.4-0.5,0.9-0.5,1.5c0,0.5,0.2,1,0.5,1.4c0.1,0.1,0.1,0.2,0.2,0.4c0,0.2,0,0.3,0,0.5c0,0.5,0.1,1,0.4,1.5
		c0.3,0.4,0.8,0.7,1.3,0.9c0.1,0,0.3,0.1,0.4,0.2c0.1,0.1,0.2,0.2,0.3,0.3c0.3,0.5,0.7,0.8,1.2,1c0.2,0.1,0.4,0.1,0.6,0.1
		c0.3,0,0.6-0.1,0.9-0.2c0.1,0,0.3-0.1,0.4-0.1c0.1,0,0.3,0,0.4,0.1c0.3,0.1,0.6,0.1,0.9,0.2c0.2,0,0.4,0,0.6-0.1
		c0.5-0.2,0.9-0.5,1.2-1c0.1-0.1,0.2-0.2,0.3-0.3c0.1-0.1,0.2-0.1,0.4-0.2c0.5-0.2,0.9-0.5,1.3-0.9c0.3-0.4,0.4-1,0.4-1.5
		c0-0.2,0-0.3,0-0.5c0.1-0.1,0.1-0.3,0.2-0.4c0.4-0.4,0.6-0.9,0.7-1.5c0-0.5-0.2-1-0.5-1.5c-0.1-0.1-0.1-0.2-0.2-0.4
		c0-0.1-0.1-0.3,0-0.5c0-0.5-0.1-1-0.4-1.5c-0.3-0.4-0.8-0.7-1.3-0.9c-0.1,0-0.3-0.1-0.4-0.2c-0.1-0.1-0.2-0.2-0.3-0.3
		c-0.3-0.4-0.7-0.8-1.2-1C17.5,5.5,17.3,5.5,17.1,5.5L17.1,5.5z M15.8,14.3c-1.4,0-2.5-1.1-2.5-2.5s1.1-2.5,2.5-2.5s2.5,1.1,2.5,2.5
		S17.1,14.3,15.8,14.3z"/>
	<path class="st0" d="M17.6,9.9c-0.2,0-0.4,0.1-0.5,0.2l-1.8,1.8L14.4,11c-0.1-0.1-0.3-0.2-0.5-0.2c-0.4,0-0.7,0.3-0.7,0.8
		c0,0.2,0.1,0.4,0.2,0.5l1.8,1.7c0.1,0.1,0.1,0.1,0.2,0.1l0.1-0.1l2.7-2.6c0.3-0.3,0.3-0.8,0-1.1C18,10,17.8,9.9,17.6,9.9z"/>
</g>
</svg>
