<svg xmlns="http://www.w3.org/2000/svg" viewBox="0 0 22 18"><defs><style>.cls-1{fill:#7b8da3;}.cls-2{fill:none;stroke:#7b8da3;stroke-linejoin:bevel;stroke-width:1.5px;}.cls-3{fill:#fdfaf5;}</style></defs><title>Certified Voicewill</title><g id="Record_copy" data-name="Record copy"><path class="cls-1" d="M20,6V18H4V6H20m0-2H4A2,2,0,0,0,2,6V18a2,2,0,0,0,2,2H20a2,2,0,0,0,2-2V6a2,2,0,0,0-2-2Z" transform="translate(-2 -4)"/><path class="cls-1" d="M15.5,11a1,1,0,1,1-1,1,1,1,0,0,1,1-1m0-1.5A2.5,2.5,0,1,0,18,12a2.5,2.5,0,0,0-2.5-2.5Z" transform="translate(-2 -4)"/><path class="cls-1" d="M8.5,11a1,1,0,1,1-1,1,1,1,0,0,1,1-1m0-1.5A2.5,2.5,0,1,0,11,12,2.5,2.5,0,0,0,8.5,9.5Z" transform="translate(-2 -4)"/><line class="cls-2" x1="6.5" y1="9.75" x2="13.5" y2="9.75"/></g><g id="Certification_copy_3" data-name="Certification copy 3"><circle class="cls-3" cx="15.78" cy="11.75" r="3.5"/><path class="cls-1" d="M19.1,21.5a3.05,3.05,0,0,1-.8-.14,2.06,2.06,0,0,0-.55-.11,2.06,2.06,0,0,0-.55.11,3.05,3.05,0,0,1-.8.14,1.21,1.21,0,0,1-.43-.07,2.19,2.19,0,0,1-1-.82,2.29,2.29,0,0,0-.37-.42,2.49,2.49,0,0,0-.49-.24,2.06,2.06,0,0,1-1.05-.7A2.3,2.3,0,0,1,12.78,18a2.42,2.42,0,0,0-.07-.58,2.14,2.14,0,0,0-.26-.49,2.27,2.27,0,0,1-.45-1.2,2.24,2.24,0,0,1,.45-1.2,2.37,2.37,0,0,0,.26-.49,3.12,3.12,0,0,0,.08-.59,2.23,2.23,0,0,1,.3-1.22,2.17,2.17,0,0,1,1.06-.71,2.49,2.49,0,0,0,.49-.24,1.9,1.9,0,0,0,.36-.41,2.19,2.19,0,0,1,1-.82A1.21,1.21,0,0,1,16.4,10a3.05,3.05,0,0,1,.8.14,2.06,2.06,0,0,0,.55.11,2.06,2.06,0,0,0,.55-.11,3.05,3.05,0,0,1,.8-.14,1.21,1.21,0,0,1,.43.07,2.12,2.12,0,0,1,1,.82,2.19,2.19,0,0,0,.37.41,1.72,1.72,0,0,0,.49.24,2.13,2.13,0,0,1,1.05.7,2.3,2.3,0,0,1,.31,1.23,2.36,2.36,0,0,0,.07.58,2.19,2.19,0,0,0,.26.5,2.24,2.24,0,0,1,.45,1.2,2.27,2.27,0,0,1-.45,1.2,2.14,2.14,0,0,0-.26.49,2.42,2.42,0,0,0-.07.58,2.3,2.3,0,0,1-.31,1.23,2.13,2.13,0,0,1-1.05.7,2.49,2.49,0,0,0-.49.24,2.57,2.57,0,0,0-.37.41,2.09,2.09,0,0,1-1,.83A1.21,1.21,0,0,1,19.1,21.5Zm-1.35-8.75a3,3,0,1,0,3,3A3,3,0,0,0,17.75,12.75Z" transform="translate(-2 -4)"/><path class="cls-3" d="M19.1,10.5a.8.8,0,0,1,.27,0c.51.17.77.84,1.2,1.16s1.12.38,1.43.83.14,1.14.31,1.67.69,1,.69,1.55-.54,1-.69,1.54,0,1.23-.31,1.68-1,.5-1.43.82-.69,1-1.2,1.17a.8.8,0,0,1-.27,0c-.43,0-.91-.25-1.35-.25s-.92.25-1.35.25a.8.8,0,0,1-.27,0c-.51-.17-.77-.84-1.2-1.17s-1.12-.38-1.43-.82-.14-1.15-.31-1.68-.69-1-.69-1.54.54-1,.69-1.55,0-1.22.31-1.67,1-.51,1.43-.82.69-1,1.2-1.17a.8.8,0,0,1,.27,0c.43,0,.91.25,1.35.25s.92-.25,1.35-.25m-1.35,8.75a3.5,3.5,0,1,0-3.5-3.5,3.5,3.5,0,0,0,3.5,3.5M19.1,9.5a3.22,3.22,0,0,0-.93.16,2.29,2.29,0,0,1-.42.09,2.29,2.29,0,0,1-.42-.09,3.22,3.22,0,0,0-.93-.16,1.87,1.87,0,0,0-.59.09,2.64,2.64,0,0,0-1.2,1,2,2,0,0,1-.27.32,2.3,2.3,0,0,1-.38.18,2.6,2.6,0,0,0-1.28.88,2.7,2.7,0,0,0-.39,1.48,2.47,2.47,0,0,1,0,.46,2.55,2.55,0,0,1-.21.38,2.76,2.76,0,0,0-.53,1.47A2.73,2.73,0,0,0,12,17.21a2,2,0,0,1,.2.37,1.61,1.61,0,0,1,0,.47,2.75,2.75,0,0,0,.4,1.49,2.7,2.7,0,0,0,1.27.88,1.74,1.74,0,0,1,.38.17,2.53,2.53,0,0,1,.28.32,2.52,2.52,0,0,0,1.2,1,1.63,1.63,0,0,0,.59.1,3.6,3.6,0,0,0,.93-.16,2.29,2.29,0,0,1,.42-.09,2.29,2.29,0,0,1,.42.09,3.6,3.6,0,0,0,.93.16,1.63,1.63,0,0,0,.59-.1,2.55,2.55,0,0,0,1.21-1,2.59,2.59,0,0,1,.27-.32,2.78,2.78,0,0,1,.38-.18,2.6,2.6,0,0,0,1.27-.87,2.75,2.75,0,0,0,.4-1.49,2.52,2.52,0,0,1,0-.46,2.55,2.55,0,0,1,.21-.38A2.73,2.73,0,0,0,24,15.75a2.76,2.76,0,0,0-.53-1.47,2,2,0,0,1-.2-.37,1.5,1.5,0,0,1-.05-.46,2.75,2.75,0,0,0-.4-1.49,2.63,2.63,0,0,0-1.27-.88,2.41,2.41,0,0,1-.38-.17,2.63,2.63,0,0,1-.28-.33,2.64,2.64,0,0,0-1.2-1,1.87,1.87,0,0,0-.59-.09Zm-1.35,8.75a2.5,2.5,0,1,1,2.5-2.5,2.5,2.5,0,0,1-2.5,2.5Z" transform="translate(-2 -4)"/><path class="cls-1" d="M19.65,13.88a.73.73,0,0,0-.52.22L17.3,15.86,16.44,15a.8.8,0,0,0-.53-.21.75.75,0,0,0-.52,1.29l1.77,1.71c.13.13.13.13.2.07l.11-.11,2.7-2.61a.75.75,0,0,0,0-1.06A.78.78,0,0,0,19.65,13.88Z" transform="translate(-2 -4)"/></g></svg>