<?xml version="1.0" encoding="utf-8"?>
<!-- Generator: Adobe Illustrator 22.0.2, SVG Export Plug-In . SVG Version: 6.00 Build 0)  -->
<svg version="1.1" id="Layer_1" xmlns="http://www.w3.org/2000/svg" xmlns:xlink="http://www.w3.org/1999/xlink" x="0px" y="0px"
	 viewBox="0 0 24 24" style="enable-background:new 0 0 24 24;" xml:space="preserve">
<style type="text/css">
	.st0{display:none;}
	.st1{display:inline;}
	.st2{fill:#FDFAF5;}
</style>
<g id="Layer_1_1_">
</g>
<g id="Layer_4" class="st0">
	<g class="st1">
		<path d="M12,4c4.4,0,8,3.6,8,8s-3.6,8-8,8s-8-3.6-8-8S7.6,4,12,4 M12,2C6.5,2,2,6.5,2,12s4.5,10,10,10s10-4.5,10-10S17.5,2,12,2
			L12,2z"/>
	</g>
	<circle class="st1" cx="12" cy="17.5" r="1"/>
	<path class="st1" d="M15.1,11.8l-0.9,0.9c-0.6,0.6-1,1.1-1.1,2.1c-0.1,0.4-0.4,0.8-0.9,0.8h-0.3c-0.5,0-0.9-0.5-0.9-1
		c0.1-0.9,0.5-1.7,1.1-2.3l1.2-1.3c0.4-0.4,0.6-0.9,0.6-1.4c0-1.1-0.9-2-2-2C11,7.6,10.3,8.2,10,9c0,0.2-0.3,0.5-0.7,0.5H9
		c-0.6,0-1-0.6-0.8-1.1c0.5-1.7,2-2.9,3.8-2.9c2.2,0,4,1.8,4,4C16,10.4,15.6,11.2,15.1,11.8z"/>
</g>
<g id="Layer_2_1_" class="st0">
	<path class="st1" d="M19.7,10c0.2,0.6,0.3,1.3,0.3,2c0,4.4-3.6,8-8,8s-8-3.6-8-8s3.6-8,8-8c0.7,0,1.3,0.1,2,0.3l1.6-1.6
		C14.4,2.2,13.3,2,12,2C6.5,2,2,6.5,2,12s4.5,10,10,10s10-4.5,10-10c0-1.3-0.2-2.4-0.7-3.6L19.7,10z"/>
	<path class="st1" d="M21.8,5.2c0.3-0.3,0.3-0.8,0-1.1l-1.9-1.9c-0.3-0.3-0.8-0.3-1.1,0l-1.4,1.4l3,3C20.3,6.6,21.8,5.2,21.8,5.2z"
		/>
	<path class="st1" d="M16.5,4.6l-8.3,8.3L8.1,13L8,13.1l0,0c-0.1,0.1-0.2,0.3-0.2,0.5v1.9l0,0l0,0c0,0.4,0.3,0.8,0.8,0.8l0,0l0,0
		h1.9c0.2,0,0.4-0.1,0.5-0.2l0,0l0.1-0.1l0.1-0.1l8.3-8.3L16.5,4.6z"/>
</g>
<g id="Layer_3" class="st0">
	<g class="st1">
		<path d="M12,4c4.4,0,8,3.6,8,8s-3.6,8-8,8s-8-3.6-8-8S7.6,4,12,4 M12,2C6.5,2,2,6.5,2,12s4.5,10,10,10s10-4.5,10-10S17.5,2,12,2
			L12,2z"/>
	</g>
	<circle class="st1" cx="12" cy="7" r="1"/>
	<circle class="st1" cx="12" cy="17" r="1"/>
	<rect x="11" y="7" class="st1" width="2" height="10"/>
	<circle class="st1" cx="6.9" cy="12" r="1"/>
	<circle class="st1" cx="16.9" cy="12" r="1"/>
	<rect x="6.9" y="11" class="st1" width="10" height="2"/>
</g>
<g id="Layer_5">
	<path class="st2" d="M16.5,9.1c-0.4-0.4-1-0.4-1.4,0l-4,3.9L9,11c-0.4-0.4-1-0.4-1.4,0s-0.4,1,0,1.4l3.5,3.3l0,0l0,0l5.4-5.2
		C16.9,10.1,16.9,9.5,16.5,9.1z"/>
	<path class="st2" d="M21.1,8.9c-0.3-1.1,0-2.5-0.6-3.4s-2-1-2.9-1.6s-1.4-2-2.4-2.3C14.3,1.3,13.1,2,12,2S9.7,1.3,8.8,1.6
		c-1,0.3-1.5,1.7-2.4,2.3S4.1,4.7,3.5,5.6S3.2,7.9,2.9,8.9s-1.4,2-1.4,3.1s1.1,2.1,1.4,3.1c0.3,1.1,0,2.5,0.6,3.4s2,1,2.9,1.6
		s1.4,2,2.4,2.3S11,22,12,22s2.3,0.8,3.2,0.4c1-0.3,1.5-1.7,2.4-2.3c0.8-0.6,2.2-0.8,2.9-1.6c0.6-0.9,0.3-2.3,0.6-3.4
		c0.3-1,1.4-2,1.4-3.1S21.4,9.9,21.1,8.9z M12,19.5c-4.1,0-7.5-3.4-7.5-7.5S7.9,4.5,12,4.5s7.5,3.4,7.5,7.5S16.1,19.5,12,19.5z"/>
</g>
</svg>
