<?xml version="1.0" encoding="utf-8"?>
<!-- Generator: Adobe Illustrator 22.0.2, SVG Export Plug-In . SVG Version: 6.00 Build 0)  -->
<svg version="1.1" id="Layer_1" xmlns="http://www.w3.org/2000/svg" xmlns:xlink="http://www.w3.org/1999/xlink" x="0px" y="0px"
	 viewBox="0 0 24 24" style="enable-background:new 0 0 24 24;" xml:space="preserve">
<style type="text/css">
	.st0{display:none;}
	.st1{display:inline;}
	.st2{fill:#FDFAF5;}
</style>
<g id="Layer_1_1_">
</g>
<g id="Layer_4" class="st0">
	<g class="st1">
		<path d="M12,4c4.4,0,8,3.6,8,8s-3.6,8-8,8s-8-3.6-8-8S7.6,4,12,4 M12,2C6.5,2,2,6.5,2,12s4.5,10,10,10s10-4.5,10-10S17.5,2,12,2
			L12,2z"/>
	</g>
	<circle class="st1" cx="12.1" cy="17.5" r="1"/>
	<path class="st1" d="M15.1,11.8l-0.9,0.9c-0.6,0.6-1,1.1-1.1,2.1c-0.1,0.4-0.4,0.8-0.9,0.8h-0.3c-0.5,0-0.9-0.5-0.9-1
		c0.1-0.9,0.5-1.7,1.1-2.3l1.2-1.3c0.4-0.4,0.6-0.9,0.6-1.4c0-1.1-0.9-2-2-2C11,7.6,10.3,8.2,10,9c0,0.2-0.3,0.5-0.7,0.5H9
		c-0.6,0-1-0.6-0.8-1.1c0.5-1.7,2-2.9,3.8-2.9c2.2,0,4,1.8,4,4C16,10.4,15.6,11.2,15.1,11.8z"/>
</g>
<g id="Layer_2_1_">
	<path class="st2" d="M20.5,5.7l-2.1-2.1l1.2-1.2C20,2,20.6,2,21,2.4L21.7,3c0.4,0.4,0.4,1,0,1.4L20.5,5.7z"/>
	<path class="st2" d="M19.5,6.6l-2.1-2.1l-9.6,9.6c-0.2,0.2-0.2,0.4-0.2,0.6l0,0v1l0,0l0,0l0,0c0,0.2,0.1,0.4,0.2,0.5
		s0.3,0.2,0.5,0.2h1.1l0,0l0,0l0,0c0.2,0,0.4-0.1,0.5-0.2L19.5,6.6z"/>
	<path class="st2" d="M20.9,7.4l-1.5,1.5c1.2,2.9,0.7,6.4-1.7,8.8c-3.1,3.1-8.2,3.1-11.3,0s-3.1-8.2,0-11.3c2.4-2.4,5.9-2.9,8.8-1.7
		l1.5-1.5C12.9,1.2,8.2,1.8,5,5C1,8.8,1,15.2,4.9,19.1s10.2,3.9,14.1,0C22.2,15.9,22.8,11.1,20.9,7.4z"/>
</g>
<g id="Layer_3" class="st0">
	<g class="st1">
		<path d="M12,4c4.4,0,8,3.6,8,8s-3.6,8-8,8s-8-3.6-8-8S7.6,4,12,4 M12,2C6.5,2,2,6.5,2,12s4.5,10,10,10s10-4.5,10-10S17.5,2,12,2
			L12,2z"/>
	</g>
	<circle class="st1" cx="12" cy="7" r="1"/>
	<circle class="st1" cx="12" cy="17" r="1"/>
	<rect x="11" y="7" class="st1" width="2" height="10"/>
	<circle class="st1" cx="6.9" cy="12" r="1"/>
	<circle class="st1" cx="16.9" cy="12" r="1"/>
	<rect x="6.9" y="11" class="st1" width="10" height="2"/>
</g>
<g id="Layer_5" class="st0">
	<path class="st1" d="M16.5,9.1c-0.4-0.4-1-0.4-1.4,0l-4,3.9L9,11c-0.4-0.4-1-0.4-1.4,0s-0.4,1,0,1.4l3.5,3.3l0,0l0,0l5.4-5.2
		C16.9,10.1,16.9,9.5,16.5,9.1z"/>
	<path class="st1" d="M21.1,8.9c-0.3-1.1,0-2.5-0.6-3.4s-2-1-2.9-1.6s-1.4-2-2.4-2.3C14.3,1.3,13.1,2,12,2S9.7,1.3,8.8,1.6
		c-1,0.3-1.5,1.7-2.4,2.3S4.1,4.7,3.5,5.6S3.2,7.9,2.9,8.9s-1.4,2-1.4,3.1s1.1,2.1,1.4,3.1c0.3,1.1,0,2.5,0.6,3.4s2,1,2.9,1.6
		s1.4,2,2.4,2.3S11,22,12,22s2.3,0.8,3.2,0.4c1-0.3,1.5-1.7,2.4-2.3c0.8-0.6,2.2-0.8,2.9-1.6c0.6-0.9,0.3-2.3,0.6-3.4
		c0.3-1,1.4-2,1.4-3.1S21.4,9.9,21.1,8.9z M12,19.5c-4.1,0-7.5-3.4-7.5-7.5S7.9,4.5,12,4.5s7.5,3.4,7.5,7.5S16.1,19.5,12,19.5z"/>
</g>
</svg>
