<?xml version="1.0" encoding="utf-8"?>
<!-- Generator: Adobe Illustrator 22.0.2, SVG Export Plug-In . SVG Version: 6.00 Build 0)  -->
<svg version="1.1" id="Layer_1" xmlns="http://www.w3.org/2000/svg" xmlns:xlink="http://www.w3.org/1999/xlink" x="0px" y="0px"
	 viewBox="0 0 24 24" style="enable-background:new 0 0 24 24;" xml:space="preserve">
<style type="text/css">
	.st0{display:none;}
	.st1{display:inline;}
	.st2{fill:#FDFAF5;}
</style>
<g id="Layer_1_1_">
</g>
<g id="Layer_4" class="st0">
	<path class="st1" d="M12.6,6c-2.1-0.3-3.9,1-4.4,2.8C8,9.4,8.4,10,9.1,10h0.2c0.4,0,0.7-0.3,0.9-0.7c0.3-0.9,1.3-1.5,2.3-1.3
		c0.9,0.2,1.6,1.1,1.6,2.1c-0.1,1.3-1.6,1.6-2.4,2.9l0,0c0,0,0,0,0,0.1c-0.1,0.1-0.2,0.3-0.3,0.5v0.1c0,0,0,0,0,0.1
		C11.1,14.1,11,14.5,11,15h2c0-0.4,0.1-0.8,0.3-1.1c0,0,0-0.1,0.1-0.1c0.1-0.1,0.2-0.3,0.3-0.4l0,0c0.1-0.1,0.2-0.2,0.3-0.3
		c1-0.9,2.3-1.6,2-3.6C15.7,7.8,14.4,6.3,12.6,6z"/>
	<g class="st1">
		<path d="M12,4c4.4,0,8,3.6,8,8s-3.6,8-8,8s-8-3.6-8-8S7.6,4,12,4 M12,2C6.5,2,2,6.5,2,12s4.5,10,10,10s10-4.5,10-10S17.5,2,12,2
			L12,2z"/>
	</g>
	<circle class="st1" cx="12" cy="17" r="1"/>
</g>
<g id="Layer_2_1_" class="st0">
	<path class="st1" d="M19.7,10c0.2,0.6,0.3,1.3,0.3,2c0,4.4-3.6,8-8,8s-8-3.6-8-8s3.6-8,8-8c0.7,0,1.3,0.1,2,0.3l1.6-1.6
		C14.4,2.2,13.3,2,12,2C6.5,2,2,6.5,2,12s4.5,10,10,10s10-4.5,10-10c0-1.3-0.2-2.4-0.7-3.6L19.7,10z"/>
	<path class="st1" d="M21.8,5.2c0.3-0.3,0.3-0.8,0-1.1l-1.9-1.9c-0.3-0.3-0.8-0.3-1.1,0l-1.4,1.4l3,3C20.3,6.6,21.8,5.2,21.8,5.2z"
		/>
	<path class="st1" d="M16.5,4.6l-8.3,8.3L8.1,13L8,13.1l0,0c-0.1,0.1-0.2,0.3-0.2,0.5v1.9l0,0l0,0c0,0.4,0.3,0.8,0.8,0.8l0,0l0,0
		h1.9c0.2,0,0.4-0.1,0.5-0.2l0,0l0.1-0.1l0.1-0.1l8.3-8.3L16.5,4.6z"/>
</g>
<g id="Layer_3">
	<g>
		<path class="st2" d="M12,4c4.4,0,8,3.6,8,8s-3.6,8-8,8s-8-3.6-8-8S7.6,4,12,4 M12,2C6.5,2,2,6.5,2,12s4.5,10,10,10s10-4.5,10-10
			S17.5,2,12,2L12,2z"/>
	</g>
	<circle class="st2" cx="12" cy="7" r="1"/>
	<circle class="st2" cx="12" cy="17" r="1"/>
	<rect x="11" y="7" class="st2" width="2" height="10"/>
	<circle class="st2" cx="6.9" cy="12" r="1"/>
	<circle class="st2" cx="16.9" cy="12" r="1"/>
	<rect x="6.9" y="11" class="st2" width="10" height="2"/>
</g>
<g id="Layer_5" class="st0">
</g>
</svg>
