<?xml version="1.0" encoding="utf-8"?>
<!-- Generator: Adobe Illustrator 22.0.2, SVG Export Plug-In . SVG Version: 6.00 Build 0)  -->
<svg version="1.1" id="Layer_1" xmlns="http://www.w3.org/2000/svg" xmlns:xlink="http://www.w3.org/1999/xlink" x="0px" y="0px"
	 viewBox="0 0 20 16" style="enable-background:new 0 0 20 16;" xml:space="preserve">
<style type="text/css">
	.st0{fill:#FDFAF5;}
	.st1{fill:#FDFAF5;stroke:#FDFAF5;stroke-width:1.5;stroke-linejoin:bevel;}
</style>
<title>Voicewill</title>
<g id="Record">
	<path class="st0" d="M18,2v12H2V2H18 M18,0H2C0.9,0,0,0.9,0,2v12c0,1.1,0.9,2,2,2h16c1.1,0,2-0.9,2-2V2C20,0.9,19.1,0,18,0z"/>
	<path class="st0" d="M13.5,7c0.6,0,1,0.4,1,1s-0.4,1-1,1c-0.6,0-1-0.4-1-1S12.9,7,13.5,7 M13.5,5.5C12.1,5.5,11,6.6,11,8
		s1.1,2.5,2.5,2.5S16,9.4,16,8S14.9,5.5,13.5,5.5z"/>
	<path class="st0" d="M6.5,7c0.6,0,1,0.4,1,1s-0.4,1-1,1s-1-0.4-1-1S5.9,7,6.5,7 M6.5,5.5C5.1,5.5,4,6.6,4,8s1.1,2.5,2.5,2.5
		S9,9.4,9,8S7.9,5.5,6.5,5.5z"/>
	<line class="st1" x1="6.5" y1="9.9" x2="13.5" y2="9.9"/>
</g>
</svg>
