<svg xmlns="http://www.w3.org/2000/svg" viewBox="0 0 18 18"><defs><style>.cls-1{fill:#fdfaf5;}</style></defs><title>Wordwill white</title><g id="Word"><path class="cls-1" d="M17,9.7H7a1,1,0,0,0,0,2H17a1,1,0,0,0,0-2Z" transform="translate(-3 -3)"/><path class="cls-1" d="M13,12.7H7a1,1,0,0,0,0,2h6a1,1,0,0,0,0-2Z" transform="translate(-3 -3)"/><path class="cls-1" d="M7,8.7H17a1,1,0,1,0,0-2H7a1,1,0,1,0,0,2Z" transform="translate(-3 -3)"/><path class="cls-1" d="M19,5V19H5V5H19m0-2H5A2,2,0,0,0,3,5V19a2,2,0,0,0,2,2H19a2,2,0,0,0,2-2V5a2,2,0,0,0-2-2Z" transform="translate(-3 -3)"/></g></svg>