<?xml version="1.0" encoding="utf-8"?>
<!-- Generator: Adobe Illustrator 22.0.2, SVG Export Plug-In . SVG Version: 6.00 Build 0)  -->
<svg version="1.1" id="Layer_1" xmlns="http://www.w3.org/2000/svg" xmlns:xlink="http://www.w3.org/1999/xlink" x="0px" y="0px"
	 viewBox="0 0 18 18" style="enable-background:new 0 0 18 18;" xml:space="preserve">
<style type="text/css">
	.st0{fill:#7B8DA3;}
</style>
<title>Wordwill</title>
<g id="Word">
	<path class="st0" d="M4,6.7h10c0.6,0,1,0.4,1,1s-0.4,1-1,1H4c-0.6,0-1-0.4-1-1S3.4,6.7,4,6.7z"/>
	<path class="st0" d="M10,11.7H4c-0.6,0-1-0.4-1-1s0.4-1,1-1h6c0.6,0,1,0.4,1,1S10.6,11.7,10,11.7z"/>
	<path class="st0" d="M14,5.7H4c-0.6,0-1-0.4-1-1s0.4-1,1-1h10c0.6,0,1,0.4,1,1S14.6,5.7,14,5.7z"/>
	<path class="st0" d="M16,2v14H2V2H16 M16,0H2C0.9,0,0,0.9,0,2v14c0,1.1,0.9,2,2,2h14c1.1,0,2-0.9,2-2V2C18,0.9,17.1,0,16,0z"/>
</g>
</svg>
